<?xml version="1.0" standalone="no"?>
<!DOCTYPE svg PUBLIC "-//W3C//DTD SVG 20010904//EN"
 "http://www.w3.org/TR/2001/REC-SVG-20010904/DTD/svg10.dtd">
<svg version="1.0" xmlns="http://www.w3.org/2000/svg"
 width="600.000000pt" height="145.000000pt" viewBox="0 0 600.000000 145.000000"
 preserveAspectRatio="xMidYMid meet">
<g transform="translate(0.000000,145.000000) scale(0.100000,-0.100000)"
fill="#000000" stroke="none">
<path d="M5205 1441 c-64 -13 -97 -57 -98 -129 -1 -64 18 -107 58 -132 56 -35
165 -20 165 22 0 22 -8 22 -34 3 -38 -29 -124 -9 -141 32 -26 65 -9 145 35
168 39 20 69 19 108 -5 l32 -20 0 25 c0 25 -7 28 -72 38 -13 2 -36 1 -53 -2z"/>
<path d="M788 1318 c-26 -68 -50 -131 -54 -140 -4 -14 -1 -18 14 -18 14 0 24
10 32 35 l12 35 63 0 63 0 12 -35 c8 -25 18 -35 32 -35 12 0 18 5 16 13 -120
326 -120 326 -190 145z m80 75 c-4 -13 24 -103 33 -109 22 -13 5 -23 -38 -22
-56 0 -68 5 -55 21 5 7 15 30 21 52 7 22 14 46 16 53 3 6 9 12 15 12 5 0 9 -3
8 -7z"/>
<path d="M2960 1300 l0 -140 58 1 c76 1 101 9 125 41 24 33 16 85 -18 100
l-22 10 23 24 c29 28 30 44 3 78 -19 24 -26 26 -95 26 l-74 0 0 -140z m140 95
c10 -12 10 -21 2 -40 -10 -22 -18 -25 -60 -25 l-48 0 1 40 0 40 46 0 c30 0 51
-6 59 -15z m2 -112 c42 -37 13 -81 -56 -84 l-50 -3 0 52 -1 52 44 0 c27 0 51
-6 63 -17z"/>
<path d="M3169 1163 c-13 -16 -12 -17 4 -4 16 13 21 21 13 21 -2 0 -10 -8 -17
-17z"/>
<path d="M2166 1037 c3 -10 9 -15 12 -12 3 3 0 11 -7 18 -10 9 -11 8 -5 -6z"/>
<path d="M7 993 c-4 -3 -7 -181 -7 -395 l0 -388 820 0 820 0 0 395 0 395 -813
0 c-448 0 -817 -3 -820 -7z m1058 -388 l0 -375 -528 -2 -527 -3 0 378 0 377
528 0 527 0 0 -375z m565 0 l0 -375 -275 0 -275 0 0 375 0 375 275 0 275 0 0
-375z"/>
<path d="M121 714 c0 -11 3 -14 6 -6 3 7 2 16 -1 19 -3 4 -6 -2 -5 -13z"/>
<path d="M160 590 l0 -90 40 0 c56 0 88 18 101 57 24 72 -14 123 -91 123 l-50
0 0 -90z m102 53 c11 -10 18 -30 18 -54 0 -44 -27 -69 -72 -69 -28 0 -28 0
-28 70 l0 70 32 0 c17 0 40 -7 50 -17z"/>
<path d="M490 661 c0 -11 -6 -22 -12 -24 -10 -4 -10 -7 -1 -14 6 -5 13 -33 15
-63 3 -54 4 -55 36 -58 18 -2 32 1 32 7 0 6 -11 11 -25 11 -23 0 -25 3 -25 50
0 47 2 50 25 50 14 0 25 5 25 10 0 6 -11 10 -25 10 -18 0 -25 5 -25 20 0 11
-4 20 -10 20 -5 0 -10 -9 -10 -19z"/>
<path d="M813 590 c-23 -68 -27 -90 -17 -90 7 0 16 11 20 25 5 21 12 25 44 25
32 0 39 -4 44 -25 4 -14 13 -25 20 -25 10 0 6 22 -18 90 -21 60 -36 90 -46 90
-11 0 -26 -29 -47 -90z m60 38 c2 -13 8 -31 12 -40 6 -15 2 -18 -25 -18 -27 0
-31 3 -25 18 4 9 10 27 12 40 3 12 9 22 13 22 4 0 10 -10 13 -22z"/>
<path d="M347 633 c-15 -14 -5 -20 30 -19 27 1 38 -3 41 -15 2 -13 -3 -15 -22
-12 -26 5 -66 -26 -66 -51 0 -18 40 -47 53 -39 5 3 22 6 36 5 25 -1 26 1 23
56 -2 31 -9 63 -14 70 -11 13 -70 17 -81 5z m71 -85 c-4 -31 -58 -40 -58 -10
0 25 8 32 37 32 20 0 24 -5 21 -22z"/>
<path d="M597 627 c-10 -6 -20 -29 -23 -49 -5 -30 -2 -41 19 -62 58 -58 130
33 81 102 -17 24 -51 29 -77 9z m64 -34 c14 -38 -3 -75 -34 -71 -17 2 -23 11
-25 36 -4 45 3 62 28 62 13 0 24 -10 31 -27z"/>
<path d="M1370 600 l0 -110 43 0 c30 0 49 6 60 18 22 24 22 66 0 88 -13 13
-14 19 -5 22 15 5 16 64 0 80 -7 7 -31 12 -55 12 l-43 0 0 -110z m65 80 c40
-15 31 -54 -12 -58 -30 -3 -33 -1 -33 26 0 25 7 42 16 42 1 0 15 -5 29 -10z
m25 -100 c17 -31 4 -57 -30 -62 -17 -3 -32 -2 -35 0 -7 8 -6 68 2 75 14 15 53
6 63 -13z"/>
<path d="M1280 631 c0 -12 5 -21 10 -21 6 0 10 6 10 14 0 8 -4 18 -10 21 -5 3
-10 -3 -10 -14z"/>
<path d="M1240 605 c0 -9 9 -15 21 -15 18 0 19 2 9 15 -7 8 -16 15 -21 15 -5
0 -9 -7 -9 -15z"/>
<path d="M1294 595 c-16 -13 -35 -24 -41 -25 -14 0 -18 -30 -4 -30 5 0 14 7
21 15 11 14 15 14 35 1 31 -20 42 -6 13 16 -19 14 -20 18 -6 18 19 0 33 16 20
24 -4 3 -21 -6 -38 -19z"/>
<path d="M1277 540 c-3 -13 0 -20 9 -20 15 0 19 26 5 34 -5 3 -11 -3 -14 -14z"/>
<path d="M2195 610 l0 -390 823 0 822 0 0 390 0 390 -822 0 -823 0 0 -390z
m1065 0 l0 -380 -525 0 -525 0 0 380 0 380 525 0 525 0 0 -380z m570 0 l0
-380 -275 0 -275 0 0 380 0 380 275 0 275 0 0 -380z"/>
<path d="M2360 596 l0 -96 29 0 c41 0 90 19 101 40 16 30 12 96 -7 119 -13 15
-34 23 -70 28 l-53 6 0 -97z m103 42 c38 -44 13 -101 -51 -113 l-32 -5 0 75 0
75 33 -6 c17 -4 40 -15 50 -26z"/>
<path d="M3000 595 l0 -95 38 0 c69 0 104 49 65 92 -9 11 -11 18 -5 18 7 0 12
13 12 30 0 35 -23 50 -74 50 l-36 0 0 -95z m68 69 c37 -10 26 -48 -15 -52 -31
-3 -33 -1 -33 27 0 32 7 36 48 25z m26 -89 c8 -22 -3 -42 -27 -49 -41 -11 -47
-7 -47 29 0 33 2 35 34 35 21 0 36 -6 40 -15z"/>
<path d="M2683 660 c3 -10 0 -21 -7 -24 -7 -3 -8 -7 -1 -13 6 -4 10 -30 11
-56 0 -50 12 -67 47 -67 9 0 17 5 17 10 0 6 -9 10 -20 10 -17 0 -20 7 -20 50
0 43 3 50 20 50 11 0 20 5 20 10 0 6 -9 10 -20 10 -13 0 -20 7 -20 20 0 12 -7
20 -16 20 -11 0 -15 -6 -11 -20z"/>
<path d="M2804 637 c-27 -15 -34 -28 -34 -68 0 -83 100 -95 116 -14 11 60 -37
107 -82 82z m54 -58 c4 -43 -20 -69 -46 -52 -20 12 -26 36 -18 69 5 20 12 25
34 22 23 -3 27 -8 30 -39z"/>
<path d="M2535 630 c-7 -11 -6 -11 44 -13 46 -3 54 -27 9 -27 -39 0 -58 -15
-58 -45 0 -40 50 -61 78 -33 9 9 12 9 12 0 0 -7 5 -12 10 -12 13 0 13 96 0
121 -8 14 -21 19 -50 19 -21 0 -42 -4 -45 -10z m85 -73 c0 -18 -21 -37 -41
-37 -22 0 -33 16 -25 35 7 19 66 20 66 2z"/>
<path d="M3594 697 c-23 -20 -28 -34 -32 -85 -4 -58 -3 -63 26 -92 17 -16 37
-30 46 -30 29 0 66 20 66 35 0 17 -16 20 -25 5 -9 -15 -61 -12 -74 4 -21 25
-24 80 -7 119 12 31 20 37 45 37 16 0 33 -4 36 -10 9 -14 25 -12 25 3 0 14
-40 37 -65 37 -8 0 -26 -11 -41 -23z"/>
<path d="M3475 639 c-4 -6 -3 -15 3 -21 6 -6 11 -4 15 6 7 18 -9 31 -18 15z"/>
<path d="M3440 616 c0 -9 7 -19 15 -22 14 -6 13 -8 -2 -19 -10 -8 -15 -17 -11
-21 5 -4 16 0 26 9 17 15 19 15 35 0 9 -9 20 -13 24 -9 4 4 0 13 -9 20 -15 11
-15 13 0 23 9 6 14 14 10 18 -3 3 -15 1 -26 -6 -18 -11 -24 -10 -41 5 -19 17
-21 17 -21 2z"/>
<path d="M3474 547 c-8 -21 2 -35 16 -21 5 5 6 15 0 24 -8 12 -10 12 -16 -3z"/>
<path d="M4360 610 l0 -390 820 0 820 0 0 390 0 390 -820 0 -820 0 0 -390z
m1060 0 l0 -380 -525 0 -525 0 0 380 0 380 525 0 525 0 0 -380z m570 0 l0
-380 -275 0 -275 0 0 380 0 380 275 0 275 0 0 -380z"/>
<path d="M4520 595 l0 -98 52 6 c69 9 90 30 90 92 0 63 -23 86 -91 93 l-51 5
0 -98z m77 65 c22 0 43 -31 43 -63 0 -41 -9 -53 -43 -66 -54 -21 -57 -17 -57
65 0 74 1 76 23 70 12 -3 27 -6 34 -6z"/>
<path d="M5183 675 c-41 -29 -42 -116 -3 -155 30 -30 110 -25 110 6 0 11 -5
11 -24 3 -37 -17 -72 -4 -84 30 -25 72 28 133 89 101 15 -8 19 -7 19 4 0 29
-71 36 -107 11z"/>
<path d="M4844 663 c4 -9 1 -20 -6 -25 -10 -8 -10 -11 0 -15 7 -3 12 -25 12
-59 0 -49 2 -54 24 -60 14 -3 31 -2 38 2 9 6 6 10 -12 14 -22 5 -25 12 -28 53
-3 41 -1 47 17 47 11 0 23 5 26 10 4 6 -5 10 -19 10 -19 0 -26 5 -26 20 0 12
-7 20 -16 20 -11 0 -14 -5 -10 -17z"/>
<path d="M5325 660 c-3 -6 1 -7 9 -4 18 7 21 14 7 14 -6 0 -13 -4 -16 -10z"/>
<path d="M4700 628 c0 -8 14 -13 37 -13 20 0 38 -6 40 -12 3 -9 -6 -13 -29
-13 -39 0 -58 -15 -58 -45 0 -40 50 -61 78 -33 9 9 12 9 12 0 0 -7 5 -12 10
-12 14 0 12 114 -2 128 -16 16 -88 16 -88 0z m80 -71 c0 -18 -21 -37 -41 -37
-22 0 -33 16 -25 35 7 19 66 20 66 2z"/>
<path d="M4946 624 c-22 -22 -21 -87 2 -107 38 -35 102 -5 102 48 0 47 -20 75
-56 75 -18 0 -40 -7 -48 -16z m73 -26 c11 -31 -2 -72 -24 -77 -35 -6 -60 60
-33 87 19 19 48 14 57 -10z"/>
<path d="M5520 612 c0 -39 -3 -77 -6 -86 -4 -10 -1 -16 7 -16 11 0 13 17 12
72 -3 78 -2 77 38 -19 33 -81 49 -70 49 32 0 101 -18 115 -22 18 l-3 -68 -25
64 c-35 90 -50 90 -50 3z"/>
<path d="M5648 608 c4 -83 13 -98 53 -98 38 0 49 24 49 104 0 90 -18 84 -22
-6 -3 -70 -4 -73 -28 -73 -24 0 -25 3 -28 73 -2 48 -7 72 -15 72 -9 0 -11 -21
-9 -72z"/>
<path d="M5780 595 l0 -85 46 0 c27 0 43 4 39 10 -3 6 -19 10 -36 10 l-29 0 0
75 c0 43 -4 75 -10 75 -6 0 -10 -35 -10 -85z"/>
<path d="M5880 595 l0 -85 40 0 c22 0 40 5 40 10 0 6 -13 10 -30 10 l-30 0 0
75 c0 43 -4 75 -10 75 -6 0 -10 -35 -10 -85z"/>
<path d="M4250 709 c0 -6 11 -25 24 -42 12 -18 26 -36 29 -42 3 -7 -73 -9
-224 -7 -183 2 -229 0 -229 -10 0 -10 46 -12 230 -10 126 2 230 0 230 -5 0 -4
-12 -26 -25 -48 -27 -43 -30 -55 -16 -55 5 0 23 26 40 57 l31 56 -38 59 c-35
55 -52 70 -52 47z"/>
<path d="M2070 664 c0 -3 14 -23 30 -44 17 -21 30 -41 30 -44 0 -3 -101 -6
-225 -6 -143 0 -225 -4 -225 -10 0 -6 84 -10 231 -10 l230 0 -31 -55 c-21 -36
-27 -55 -18 -55 7 0 27 27 44 60 l31 59 -36 55 c-20 31 -42 56 -48 56 -7 0
-13 -3 -13 -6z"/>
<path d="M640 116 l0 -73 33 -7 c26 -5 35 -2 50 15 35 43 12 106 -36 97 -23
-4 -27 -2 -27 18 0 13 -4 24 -10 24 -6 0 -10 -31 -10 -74z m76 -12 c8 -30 -16
-60 -40 -51 -16 6 -23 57 -9 70 16 16 43 6 49 -19z"/>
<path d="M4895 170 c-28 -31 -8 -37 23 -7 19 20 22 27 11 27 -9 0 -24 -9 -34
-20z"/>
<path d="M4992 95 c2 -48 7 -85 13 -85 6 0 11 37 13 85 2 72 0 85 -13 85 -13
0 -15 -13 -13 -85z"/>
<path d="M5147 174 c-8 -8 1 -24 14 -24 5 0 9 7 9 15 0 15 -12 20 -23 9z"/>
<path d="M5060 151 c0 -11 -6 -22 -12 -25 -10 -5 -10 -7 0 -12 7 -3 12 -24 12
-50 0 -39 3 -46 26 -54 14 -6 31 -7 37 -3 7 4 2 9 -13 13 -21 5 -25 12 -28 48
-3 36 0 42 17 42 11 0 23 5 26 10 4 6 -5 10 -19 10 -19 0 -26 5 -26 20 0 11
-4 20 -10 20 -5 0 -10 -9 -10 -19z"/>
<path d="M1167 153 c-4 -3 -17 -7 -28 -8 -19 -1 -22 -8 -23 -53 0 -29 3 -52 9
-52 6 0 10 13 11 29 1 41 11 61 29 61 8 0 15 7 15 15 0 16 -3 18 -13 8z"/>
<path d="M415 126 c-30 -45 12 -111 59 -93 25 10 19 25 -8 20 -17 -4 -27 1
-35 16 -17 31 3 64 35 58 16 -3 24 0 24 9 0 25 -58 17 -75 -10z"/>
<path d="M527 143 c-14 -14 -6 -19 22 -15 16 2 32 -1 35 -7 5 -7 -2 -11 -18
-11 -24 0 -56 -23 -56 -40 0 -16 33 -41 47 -36 8 3 23 6 34 6 15 0 19 7 19 36
0 50 -15 74 -49 74 -15 0 -31 -3 -34 -7z m61 -65 c-7 -21 -36 -34 -49 -21 -6
6 -8 16 -5 22 10 15 59 14 54 -1z"/>
<path d="M770 131 c-28 -54 9 -109 64 -95 14 3 26 10 26 15 0 5 -11 7 -25 3
-25 -6 -55 9 -55 27 0 5 18 9 40 9 32 0 40 4 40 18 0 42 -70 60 -90 23z m68
-18 c2 -9 -7 -13 -27 -13 -30 0 -39 9 -24 24 11 10 46 3 51 -11z"/>
<path d="M896 134 c-25 -24 -20 -71 9 -90 27 -17 56 -16 63 4 3 9 -3 11 -20 7
-30 -8 -51 14 -46 47 2 19 9 23 36 23 19 0 32 5 32 12 0 18 -55 16 -74 -3z"/>
<path d="M1000 131 c-17 -34 -12 -69 14 -86 25 -16 76 -12 76 7 0 5 -9 6 -20
3 -27 -9 -60 3 -60 21 0 10 12 14 40 14 41 0 47 8 30 41 -14 26 -66 26 -80 0z
m68 -18 c2 -9 -7 -13 -27 -13 -30 0 -39 9 -24 24 11 10 46 3 51 -11z"/>
<path d="M1200 137 c0 -9 9 -12 29 -9 16 2 32 -1 35 -7 5 -7 -3 -11 -21 -11
-16 0 -34 -5 -41 -12 -32 -32 8 -80 48 -58 14 8 20 8 20 0 0 -6 4 -9 9 -6 10
7 8 87 -3 105 -10 16 -76 14 -76 -2z m60 -67 c-11 -21 -35 -27 -45 -10 -10 16
4 30 31 30 22 0 23 -3 14 -20z"/>
<path d="M4850 83 c0 -70 10 -83 63 -80 l37 2 0 63 c0 75 -18 83 -22 10 -3
-49 -5 -53 -28 -53 -23 0 -25 4 -28 50 -5 75 -22 81 -22 8z"/>
<path d="M5332 124 c-13 -9 -23 -10 -27 -4 -3 5 -26 9 -50 8 l-45 -2 0 -63 c0
-35 4 -63 10 -63 6 0 10 18 10 39 0 54 8 71 36 71 21 0 23 -5 26 -50 4 -64 21
-65 28 -3 4 37 9 49 24 51 25 5 37 -15 34 -60 -3 -47 16 -55 20 -9 7 73 -25
114 -66 85z"/>
<path d="M5470 129 c-31 -13 -40 -26 -40 -66 0 -65 88 -85 111 -25 21 54 -22
109 -71 91z m45 -64 c0 -43 -22 -58 -50 -35 -32 27 -10 84 30 78 16 -2 20 -11
20 -43z"/>
<path d="M5150 65 c0 -37 4 -65 10 -65 6 0 10 28 10 65 0 37 -4 65 -10 65 -6
0 -10 -28 -10 -65z"/>
</g>
</svg>
